# xmcd
#
# Track frame offsets: 
#        150
#        10792
#        34490
#        66150
#        83060
#        103815
#        126225
#        137805
#        160112
#        177535
#
# Disc length: 2619 seconds
#
# Revision: 2
# Processed by: cddbd v1.5.2PL0 Copyright (c) Steve Scherf et al.
# Submitted via: ExactAudioCopy v1.0b4
#
DISCID=880a390a
DTITLE=B. B. King - Got My Mojo Working
DYEAR=1989
DGENRE=Blues
TTITLE0=I Need Your Love
TTITLE1=Ghetto Woman
TTITLE2=Sweet Sixteen
TTITLE3=Everybody Lies A little
TTITLE4=Got My Mojo Working
TTITLE5=Midnight Believer
TTITLE6=Paying The Cost To Be The Boss
TTITLE7=Confessing The Blues
TTITLE8=Walkin' In The Sun
TTITLE9=When It All Comes Down (I'll Still Be Around)
EXTD=
EXTT0=
EXTT1=
EXTT2=
EXTT3=
EXTT4=
EXTT5=
EXTT6=
EXTT7=
EXTT8=
EXTT9=
PLAYORDER=
